<svg width="30" height="36" viewBox="0 0 30 36" fill="none" xmlns="http://www.w3.org/2000/svg">
<path d="M0.393013 0H29.607H29.9607H30V0.0393017V0.393013V23.3581V23.4629V23.4891V23.5677V23.7118V23.7511C29.9476 25.1397 29.5284 26.5677 28.7948 27.9432C28.048 29.345 26.9738 30.6943 25.6507 31.8603C24.262 33.0917 22.5983 34.1266 20.7511 34.8472C19.048 35.5153 17.1747 35.9214 15.2227 35.9476H15.0131C13.0742 35.9476 11.2271 35.5939 9.52402 34.9782C7.70306 34.3231 6.0655 33.3668 4.67686 32.214C3.27511 31.048 2.13537 29.6856 1.33625 28.2183C0.55022 26.7904 0.0917015 25.2707 0.0392997 23.7642H0V23.7118V23.3974V23.3581V0.393013V0.0393017V0H0.0392997H0.393013ZM10.821 31.6507H11.2533V30.4323L11.3057 30.2227L11.1616 30.4061L10.8865 30.5895L10.7162 30.3537L11.4236 29.7904H11.6463V31.6507H12.0655V31.9913H10.8341V31.6507H10.821ZM13.048 31.4541C13.048 31.3886 13.0611 31.3231 13.0742 31.2576C13.0873 31.2052 13.1135 31.1528 13.1528 31.1004C13.1921 31.048 13.2314 31.0087 13.2707 30.9694C13.3231 30.9301 13.3624 30.9039 13.4149 30.8646C13.31 30.7991 13.2314 30.7336 13.179 30.6419C13.1266 30.5633 13.0873 30.4585 13.0873 30.3275C13.0873 30.2489 13.1004 30.1703 13.1266 30.1048C13.1528 30.0393 13.2052 29.9738 13.2576 29.9214C13.31 29.869 13.3886 29.8297 13.4672 29.8035C13.5458 29.7773 13.6376 29.7642 13.7424 29.7642C13.8341 29.7642 13.9127 29.7773 13.9913 29.8035C14.0699 29.8297 14.1354 29.869 14.1878 29.9083C14.2402 29.9476 14.2795 30.0131 14.3188 30.0786C14.345 30.1441 14.3581 30.2096 14.3581 30.2882C14.3581 30.4061 14.3319 30.5109 14.2795 30.6026C14.2271 30.6812 14.1485 30.7598 14.0437 30.8384C14.1616 30.9039 14.2664 30.9956 14.3188 31.0742C14.3843 31.1659 14.4105 31.2707 14.4105 31.4017C14.4105 31.4935 14.3974 31.5721 14.3581 31.6507C14.3188 31.7293 14.2795 31.7948 14.214 31.8472C14.1485 31.8996 14.083 31.9389 13.9913 31.9782C13.8996 32.0044 13.8079 32.0175 13.7031 32.0175C13.5982 32.0175 13.5065 32.0044 13.4279 31.9782C13.3493 31.952 13.2707 31.9127 13.2183 31.8603C13.1659 31.8079 13.1135 31.7555 13.0873 31.6769C13.0742 31.6245 13.048 31.5459 13.048 31.4541ZM14.0437 31.4148C14.0437 31.3624 14.0306 31.3231 14.0044 31.2838C13.9782 31.2445 13.952 31.2052 13.9127 31.179C13.8734 31.1528 13.8341 31.1135 13.7948 31.0873C13.7555 31.0611 13.7031 31.0349 13.6638 31.0087C13.5721 31.0611 13.5065 31.1266 13.4672 31.1921C13.4279 31.2576 13.4149 31.3231 13.4149 31.3886C13.4149 31.4672 13.441 31.5459 13.4934 31.5983C13.5459 31.6507 13.6245 31.69 13.7293 31.69C13.821 31.69 13.8996 31.6638 13.952 31.6245C14.0175 31.5721 14.0437 31.5065 14.0437 31.4148ZM13.4934 30.3668C13.4934 30.4192 13.5066 30.4585 13.5197 30.4978C13.5328 30.5371 13.559 30.5633 13.5983 30.5895C13.6245 30.6157 13.6638 30.6419 13.7031 30.6681C13.7424 30.6943 13.7817 30.7074 13.8341 30.7336C13.952 30.6288 14.0175 30.5109 14.0175 30.393C14.0175 30.3013 13.9913 30.2358 13.9389 30.1965C13.8865 30.1572 13.821 30.131 13.7555 30.131C13.6638 30.131 13.5983 30.1572 13.559 30.1965C13.5065 30.2358 13.4934 30.3013 13.4934 30.3668ZM15.3537 30.9039C15.3537 30.524 15.4192 30.2489 15.5502 30.0655C15.6812 29.8821 15.8646 29.7904 16.1135 29.7904C16.3755 29.7904 16.559 29.8821 16.69 30.0655C16.8079 30.2489 16.8734 30.524 16.8734 30.917C16.8734 31.2969 16.8079 31.5852 16.6769 31.7686C16.5458 31.952 16.3624 32.0437 16.1135 32.0437C15.8515 32.0437 15.6681 31.952 15.5502 31.7555C15.4061 31.5459 15.3537 31.2707 15.3537 30.9039ZM15.7467 30.9039C15.7467 31.1528 15.7729 31.3493 15.8253 31.4803C15.8777 31.6114 15.9694 31.69 16.1004 31.69C16.2183 31.69 16.31 31.6245 16.3624 31.5065C16.4149 31.3755 16.441 31.179 16.441 30.9039C16.441 30.655 16.4149 30.4585 16.3624 30.3275C16.31 30.1965 16.2183 30.1179 16.0873 30.1179C15.9694 30.1179 15.8777 30.1834 15.8253 30.3144C15.7729 30.4454 15.7467 30.6419 15.7467 30.9039ZM19.2969 31.3886H18.9563V31.9913H18.5895V31.3886H17.6594V31.1659L18.6419 29.8166H18.9694V31.0742H19.31V31.3886H19.2969ZM18.5764 30.5895L18.6026 30.3275L18.4978 30.5502L18.1834 30.9694L18.0262 31.0873L18.2227 31.0611H18.5895V30.5895H18.5764ZM10.4803 8.8559C9.57642 8.34498 9.1834 9.0917 8.29257 9.27511C7.29694 9.48471 7.03493 8.71179 6.61572 8.01747C7.31004 8.16157 7.34934 8.48908 8.26637 7.87336C8.93449 7.41485 9.78603 7.71616 10.2707 8.27948L9.72053 6.79913C11.3581 6.78603 13.2052 6.57642 14.8297 6.79913L15.0393 6.83843C16.7686 7.17904 18.0786 8.65939 18.0786 10.5328C18.0786 11.9083 17.2926 13.4279 16.1397 14.2402V14.4105C17.6725 14.0568 19.441 12.7729 19.5982 12.0524C19.3755 11.9607 18.8384 11.6594 18.8384 11.6201C18.2358 11.1878 17.9738 10.3231 18.1179 9.68122C18.262 9.0262 18.5633 8.71179 18.9956 8.44978C19.2969 8.29258 19.559 8.20087 19.8865 8.17467L27.9825 7.03494C28.0218 7.31005 28.048 7.58515 28.0611 7.86026C28.2969 12.8122 24.4716 17.0175 19.5196 17.2533C17.8297 17.3319 15.6419 16.4017 14.869 14.7904C14.8297 14.8035 14.7904 14.8035 14.7511 14.8035C14.4629 14.8297 14.1878 14.8821 13.9258 14.9476C13.6638 16.0218 15.8646 16.8603 18.4192 17.2664L18.0131 17.8559C18.4978 17.6987 19.0087 17.6201 19.5459 17.6201C22.3493 17.6201 24.6288 19.8996 24.6288 22.7031C24.6288 25.5065 22.3493 27.786 19.5459 27.786C16.7424 27.786 14.4629 25.5065 14.4629 22.7031C14.4629 22.4148 14.4891 22.1266 14.5284 21.8515L14.6987 21.8777L17.7773 22.0873C17.6201 22.3362 17.5415 22.6245 17.5415 22.9389C17.5415 23.8428 18.2751 24.5895 19.1921 24.5895C20.0961 24.5895 20.8428 23.8559 20.8428 22.9389C20.8428 22.048 20.1223 21.3144 19.2445 21.2882V21.2751L19.048 21.3013C19.0218 21.3013 19.0087 21.3013 18.9825 21.3144L16.3362 21.6288C15.1834 21.8253 14.1747 21.8908 13.3231 21.8646L9.65502 26.869L9.19651 25.6507C6.60262 25.4279 7.50655 26.6332 8.08297 27.1179C8.13537 27.1703 8.13537 27.3668 8.08297 27.4061C7.12664 27.3275 6.30131 26.5677 6.30131 25.5721C6.30131 24.5764 7.12664 23.7249 8.14847 23.7249C8.8297 23.7249 9.41922 24.0917 9.74673 24.6419L11.4105 19.3886H11.1485L10.1397 20.8428C9.55022 20.2271 9.0786 19.4803 8.79039 18.6419L5.9738 15.1572C5.85589 15.4323 5.67249 15.6681 5.44978 15.8515L4.88646 14.3712C3.64192 14.3057 2.869 14.607 3.52402 15.5502H3.79913L3.75983 15.0786H4.54585L4.42795 16.7162V16.7293V16.7555H3.89083V16.6507L3.85153 16.1266C3.14411 15.8777 2.46288 15.3144 2.46288 14.4236C2.46288 13.7424 2.9345 13.0349 3.58952 12.7336L3.2227 7.95197L2.34498 6.85153H3.79913C3.74672 6.23581 3.93013 5.58079 4.29694 5.04367C3.96943 5.09607 3.66812 5.27948 3.37991 5.76419C3.1834 4.71616 4.07424 3.36681 5.26638 3.56332C6.47162 3.77293 6.36682 3.41921 6.99564 2.9476C6.95634 3.34061 6.94323 3.73363 6.85153 4.07424C8.09607 4.20524 8.04367 3.75983 8.84279 3.15721C8.69869 4.38865 8.8297 5.64629 7.32315 6C5.9476 6.32751 4.91266 5.51528 3.96943 6.86463H4.13973H5.9345L5.06987 7.96506L4.71616 12.6419C5.01747 12.7074 5.27948 12.8515 5.50218 13.048L7.74235 14.3974L8.24018 16.2183H8.47598C8.71179 13.1659 11.2271 10.7555 14.3188 10.6638L14.2009 10.3624L11.0961 10.3755L10.4803 8.8559ZM10.3362 8.35808C10.428 8.48908 10.5197 8.62009 10.5721 8.76419C11.8952 9 14.3581 10.5327 13.5327 8.35808H10.3362ZM12.4978 3.94323H13.2969V4.13974H13.5459V4.75546C13.3886 4.82096 13.2707 4.97817 13.2707 5.16157C13.2707 5.35808 13.4017 5.52839 13.572 5.58079H13.5852H13.5983H13.6114H13.6245C13.8734 5.58079 14.0699 5.38428 14.0699 5.13537V5.12227V5.10917V5.09607V5.08297V5.06987C14.0699 5.05677 14.0699 5.05677 14.0699 5.04367V5.03057V5.01747V5.00437V4.99127C14.0437 4.92577 14.0044 4.86026 13.9651 4.80786H13.952L13.9389 4.79476L13.9258 4.78166L13.9127 4.76856H13.8996V4.65065C13.8996 4.28384 14.2271 3.79913 14.5939 3.78603L15.2751 3.77292L14.3057 6.32751L11.5153 6.34061L10.5459 3.78603L11.1878 3.79913C11.5546 3.79913 11.8821 4.29694 11.8821 4.66376V4.78166C11.7904 4.82096 11.7249 4.89956 11.6725 4.97817V4.99127V5.00437V5.01747V5.03057V5.04367V5.05677C11.6725 5.06987 11.6594 5.09607 11.6594 5.10917C11.6594 5.12227 11.6594 5.13537 11.6463 5.14847C11.6463 5.14847 11.6463 5.16157 11.6463 5.17467V5.18777V5.20087C11.6463 5.44978 11.8428 5.64629 12.0917 5.64629H12.1048H12.1179C12.3013 5.59389 12.4454 5.42358 12.4454 5.21397C12.4454 5.03057 12.3275 4.87336 12.1703 4.80786V4.19214H12.4192V3.94323H12.4978ZM23.6725 19.31C25.821 18.4454 27.8122 16.9782 28.2707 13.3493C27.8515 15.1441 26.9214 16.1266 25.7555 16.6769C24.5109 17.2664 22.9913 17.345 21.5371 17.3581C22.5197 17.8035 23.1878 18.4061 23.6725 19.31ZM29.214 0.772925H0.772929V22.9651V23.0044V23.2533V23.345V23.3843C0.772929 24.8384 1.17904 26.3188 1.92577 27.7074C2.68559 29.1354 3.78602 30.4716 5.14847 31.5983C6.47161 32.6987 8.03057 33.6026 9.75982 34.2314C11.3843 34.821 13.1397 35.1485 14.9869 35.1485H15.1965C17.0568 35.1223 18.8253 34.7424 20.4498 34.1004C22.2052 33.4061 23.7904 32.4236 25.1135 31.2576C26.3843 30.131 27.4192 28.8341 28.1266 27.4847C28.821 26.1616 29.2009 24.7991 29.2009 23.476C29.2009 23.4236 29.2009 23.4105 29.2009 23.3974V23.3843V23.345V23.2926V23.0044V22.9651V0.772925H29.214Z" fill="white"/>
</svg>
